<?xml version="1.0" encoding="UTF-8" standalone="no"?>
<!DOCTYPE svg PUBLIC "-//W3C//DTD SVG 1.1//EN"
 "http://www.w3.org/Graphics/SVG/1.1/DTD/svg11.dtd">
<!-- Generated by graphviz version 2.40.1 (20161225.0304)
 -->
<!-- Title: G Pages: 1 -->
<svg width="989pt" height="2048pt"
 viewBox="0.00 0.00 989.34 2048.00" xmlns="http://www.w3.org/2000/svg" xmlns:xlink="http://www.w3.org/1999/xlink">
<g id="graph0" class="graph" transform="scale(1 1) rotate(0) translate(4 2044)">
<title>G</title>
<polygon fill="#ffffff" stroke="transparent" points="-4,4 -4,-2044 985.3397,-2044 985.3397,4 -4,4"/>
<g id="clust1" class="cluster">
<title>cluster_Global</title>
<path fill="none" stroke="#c0c0c0" d="M409.7056,-206C409.7056,-206 961.3397,-206 961.3397,-206 967.3397,-206 973.3397,-212 973.3397,-218 973.3397,-218 973.3397,-2020 973.3397,-2020 973.3397,-2026 967.3397,-2032 961.3397,-2032 961.3397,-2032 409.7056,-2032 409.7056,-2032 403.7056,-2032 397.7056,-2026 397.7056,-2020 397.7056,-2020 397.7056,-218 397.7056,-218 397.7056,-212 403.7056,-206 409.7056,-206"/>
<text text-anchor="middle" x="685.5227" y="-2019.2" font-family="Times,serif" font-size="11.00" fill="#c0c0c0">Global</text>
</g>
<g id="clust2" class="cluster">
<title>cluster_\UnitConverter</title>
<path fill="none" stroke="#c0c0c0" d="M417.7056,-214C417.7056,-214 953.3397,-214 953.3397,-214 959.3397,-214 965.3397,-220 965.3397,-226 965.3397,-226 965.3397,-1993 965.3397,-1993 965.3397,-1999 959.3397,-2005 953.3397,-2005 953.3397,-2005 417.7056,-2005 417.7056,-2005 411.7056,-2005 405.7056,-1999 405.7056,-1993 405.7056,-1993 405.7056,-226 405.7056,-226 405.7056,-220 411.7056,-214 417.7056,-214"/>
<text text-anchor="middle" x="685.5227" y="-1992.2" font-family="Times,serif" font-size="11.00" fill="#c0c0c0">UnitConverter</text>
</g>
<g id="clust3" class="cluster">
<title>cluster_\UnitConverter\Exception</title>
<path fill="none" stroke="#c0c0c0" d="M732.7064,-322C732.7064,-322 945.3397,-322 945.3397,-322 951.3397,-322 957.3397,-328 957.3397,-334 957.3397,-334 957.3397,-489 957.3397,-489 957.3397,-495 951.3397,-501 945.3397,-501 945.3397,-501 732.7064,-501 732.7064,-501 726.7064,-501 720.7064,-495 720.7064,-489 720.7064,-489 720.7064,-334 720.7064,-334 720.7064,-328 726.7064,-322 732.7064,-322"/>
<text text-anchor="middle" x="839.023" y="-488.2" font-family="Times,serif" font-size="11.00" fill="#c0c0c0">Exception</text>
</g>
<g id="clust4" class="cluster">
<title>cluster_\UnitConverter\Unit</title>
<path fill="none" stroke="#c0c0c0" d="M449.3121,-509C449.3121,-509 903.8316,-509 903.8316,-509 909.8316,-509 915.8316,-515 915.8316,-521 915.8316,-521 915.8316,-1966 915.8316,-1966 915.8316,-1972 909.8316,-1978 903.8316,-1978 903.8316,-1978 449.3121,-1978 449.3121,-1978 443.3121,-1978 437.3121,-1972 437.3121,-1966 437.3121,-1966 437.3121,-521 437.3121,-521 437.3121,-515 443.3121,-509 449.3121,-509"/>
<text text-anchor="middle" x="676.5718" y="-1965.2" font-family="Times,serif" font-size="11.00" fill="#c0c0c0">Unit</text>
</g>
<g id="clust5" class="cluster">
<title>cluster_\UnitConverter\Unit\Energy</title>
<path fill="none" stroke="#c0c0c0" d="M782.2144,-829C782.2144,-829 895.8316,-829 895.8316,-829 901.8316,-829 907.8316,-835 907.8316,-841 907.8316,-841 907.8316,-1374 907.8316,-1374 907.8316,-1380 901.8316,-1386 895.8316,-1386 895.8316,-1386 782.2144,-1386 782.2144,-1386 776.2144,-1386 770.2144,-1380 770.2144,-1374 770.2144,-1374 770.2144,-841 770.2144,-841 770.2144,-835 776.2144,-829 782.2144,-829"/>
<text text-anchor="middle" x="839.023" y="-1373.2" font-family="Times,serif" font-size="11.00" fill="#c0c0c0">Energy</text>
</g>
<g id="clust6" class="cluster">
<title>cluster_\UnitConverter\Unit\Mass</title>
<path fill="none" stroke="#c0c0c0" d="M802.0176,-642C802.0176,-642 876.0284,-642 876.0284,-642 882.0284,-642 888.0284,-648 888.0284,-654 888.0284,-654 888.0284,-809 888.0284,-809 888.0284,-815 882.0284,-821 876.0284,-821 876.0284,-821 802.0176,-821 802.0176,-821 796.0176,-821 790.0176,-815 790.0176,-809 790.0176,-809 790.0176,-654 790.0176,-654 790.0176,-648 796.0176,-642 802.0176,-642"/>
<text text-anchor="middle" x="839.023" y="-808.2" font-family="Times,serif" font-size="11.00" fill="#c0c0c0">Mass</text>
</g>
<g id="clust7" class="cluster">
<title>cluster_\UnitConverter\Unit\Pressure</title>
<path fill="none" stroke="#c0c0c0" d="M808.6187,-563C808.6187,-563 869.4273,-563 869.4273,-563 875.4273,-563 881.4273,-569 881.4273,-575 881.4273,-575 881.4273,-622 881.4273,-622 881.4273,-628 875.4273,-634 869.4273,-634 869.4273,-634 808.6187,-634 808.6187,-634 802.6187,-634 796.6187,-628 796.6187,-622 796.6187,-622 796.6187,-575 796.6187,-575 796.6187,-569 802.6187,-563 808.6187,-563"/>
<text text-anchor="middle" x="839.023" y="-621.2" font-family="Times,serif" font-size="11.00" fill="#c0c0c0">Pressure</text>
</g>
<g id="clust8" class="cluster">
<title>cluster_\UnitConverter\Unit\Time</title>
<path fill="none" stroke="#c0c0c0" d="M457.3121,-1394C457.3121,-1394 879.3289,-1394 879.3289,-1394 885.3289,-1394 891.3289,-1400 891.3289,-1406 891.3289,-1406 891.3289,-1939 891.3289,-1939 891.3289,-1945 885.3289,-1951 879.3289,-1951 879.3289,-1951 457.3121,-1951 457.3121,-1951 451.3121,-1951 445.3121,-1945 445.3121,-1939 445.3121,-1939 445.3121,-1406 445.3121,-1406 445.3121,-1400 451.3121,-1394 457.3121,-1394"/>
<text text-anchor="middle" x="668.3205" y="-1938.2" font-family="Times,serif" font-size="11.00" fill="#c0c0c0">Time</text>
</g>
<!-- \\UnitConverter\\Exception\\MissingUnitRegistryException -->
<g id="node1" class="node">
<title>\\UnitConverter\\Exception\\MissingUnitRegistryException</title>
<polygon fill="none" stroke="#000000" points="939.3532,-474 738.6929,-474 738.6929,-438 939.3532,-438 939.3532,-474"/>
<text text-anchor="middle" x="839.023" y="-452.7" font-family="Courier,monospace" font-size="11.00" fill="#000000">MissingUnitRegistryException</text>
</g>
<!-- \\OutOfBoundsException -->
<g id="node33" class="node">
<title>\\OutOfBoundsException</title>
<ellipse fill="none" stroke="#000000" cx="494.3175" cy="-18" rx="98.0812" ry="18"/>
<text text-anchor="middle" x="494.3175" y="-13.8" font-family="Times,serif" font-size="14.00" fill="#c0c0c0">\OutOfBoundsException</text>
</g>
<!-- \\UnitConverter\\Exception\\MissingUnitRegistryException&#45;&gt;\\OutOfBoundsException -->
<g id="edge1" class="edge">
<title>\\UnitConverter\\Exception\\MissingUnitRegistryException&#45;&gt;\\OutOfBoundsException</title>
<path fill="none" stroke="#000000" d="M738.5935,-442.681C731.9874,-439.021 725.9086,-434.5197 720.7064,-429 602.0373,-303.0879 779.0743,-167.3204 656.7064,-45 641.7,-29.9995 621.7399,-21.4287 600.9614,-16.8199"/>
<polygon fill="none" stroke="#000000" points="601.5242,-13.3641 591.0441,-14.9185 600.2061,-20.2389 601.5242,-13.3641"/>
</g>
<!-- \\UnitConverter\\Exception\\UnknownMeasurementTypeException -->
<g id="node2" class="node">
<title>\\UnitConverter\\Exception\\UnknownMeasurementTypeException</title>
<polygon fill="none" stroke="#000000" points="949.1566,-420 728.8894,-420 728.8894,-384 949.1566,-384 949.1566,-420"/>
<text text-anchor="middle" x="839.023" y="-398.7" font-family="Courier,monospace" font-size="11.00" fill="#000000">UnknownMeasurementTypeException</text>
</g>
<!-- \\UnitConverter\\Exception\\UnknownMeasurementTypeException&#45;&gt;\\OutOfBoundsException -->
<g id="edge2" class="edge">
<title>\\UnitConverter\\Exception\\UnknownMeasurementTypeException&#45;&gt;\\OutOfBoundsException</title>
<path fill="none" stroke="#000000" d="M731.2571,-383.9129C727.4729,-381.2887 723.9298,-378.3309 720.7064,-375 616.8115,-267.6405 763.7538,-149.2163 656.7064,-45 641.748,-30.4372 622.1046,-21.9868 601.6676,-17.3463"/>
<polygon fill="none" stroke="#000000" points="602.0757,-13.8596 591.5883,-15.3641 600.725,-20.728 602.0757,-13.8596"/>
</g>
<!-- \\UnitConverter\\Exception\\UnknownUnitOfMeasureException -->
<g id="node3" class="node">
<title>\\UnitConverter\\Exception\\UnknownUnitOfMeasureException</title>
<polygon fill="none" stroke="#000000" points="942.9546,-366 735.0914,-366 735.0914,-330 942.9546,-330 942.9546,-366"/>
<text text-anchor="middle" x="839.023" y="-344.7" font-family="Courier,monospace" font-size="11.00" fill="#000000">UnknownUnitOfMeasureException</text>
</g>
<!-- \\UnitConverter\\Exception\\UnknownUnitOfMeasureException&#45;&gt;\\OutOfBoundsException -->
<g id="edge3" class="edge">
<title>\\UnitConverter\\Exception\\UnknownUnitOfMeasureException&#45;&gt;\\OutOfBoundsException</title>
<path fill="none" stroke="#000000" d="M735.2239,-336.6844C729.9735,-333.7265 725.0758,-330.1976 720.7064,-326 628.3376,-237.2625 749.9175,-132.8521 656.7064,-45 641.6036,-30.7655 622.0025,-22.4341 601.6704,-17.8021"/>
<polygon fill="none" stroke="#000000" points="602.1367,-14.3265 591.647,-15.8157 600.7759,-21.1929 602.1367,-14.3265"/>
</g>
<!-- \\UnitConverter\\Unit\\Energy\\Calorie -->
<g id="node4" class="node">
<title>\\UnitConverter\\Unit\\Energy\\Calorie</title>
<polygon fill="none" stroke="#000000" points="870.2309,-1359 807.8151,-1359 807.8151,-1323 870.2309,-1323 870.2309,-1359"/>
<text text-anchor="middle" x="839.023" y="-1337.7" font-family="Courier,monospace" font-size="11.00" fill="#000000">Calorie</text>
</g>
<!-- \\UnitConverter\\Unit\\Energy\\EnergyUnit -->
<g id="node34" class="node">
<title>\\UnitConverter\\Unit\\Energy\\EnergyUnit</title>
<ellipse fill="none" stroke="#000000" cx="494.3175" cy="-180" rx="137.516" ry="18"/>
<text text-anchor="middle" x="494.3175" y="-175.8" font-family="Times,serif" font-size="14.00" fill="#c0c0c0">\UnitConverter\UnitnergynergyUnit</text>
</g>
<!-- \\UnitConverter\\Unit\\Energy\\Calorie&#45;&gt;\\UnitConverter\\Unit\\Energy\\EnergyUnit -->
<g id="edge4" class="edge">
<title>\\UnitConverter\\Unit\\Energy\\Calorie&#45;&gt;\\UnitConverter\\Unit\\Energy\\EnergyUnit</title>
<path fill="none" stroke="#000000" d="M807.8888,-1343.3524C780.4727,-1343.5406 741.7308,-1338.8514 720.7064,-1314 561.9851,-1126.3879 819.3024,-394.264 656.7064,-210 649.6626,-202.0176 641.2457,-195.7197 632.0021,-190.7856"/>
<polygon fill="none" stroke="#000000" points="633.4386,-187.5931 622.9042,-186.4623 630.4341,-193.9156 633.4386,-187.5931"/>
</g>
<!-- \\UnitConverter\\Unit\\Energy\\FootPound -->
<g id="node5" class="node">
<title>\\UnitConverter\\Unit\\Energy\\FootPound</title>
<polygon fill="none" stroke="#000000" points="876.9338,-1305 801.1122,-1305 801.1122,-1269 876.9338,-1269 876.9338,-1305"/>
<text text-anchor="middle" x="839.023" y="-1283.7" font-family="Courier,monospace" font-size="11.00" fill="#000000">FootPound</text>
</g>
<!-- \\UnitConverter\\Unit\\Energy\\FootPound&#45;&gt;\\UnitConverter\\Unit\\Energy\\EnergyUnit -->
<g id="edge5" class="edge">
<title>\\UnitConverter\\Unit\\Energy\\FootPound&#45;&gt;\\UnitConverter\\Unit\\Energy\\EnergyUnit</title>
<path fill="none" stroke="#000000" d="M801.0475,-1289.2771C774.35,-1288.6243 740.0637,-1282.8121 720.7064,-1260 569.4571,-1081.7576 811.6369,-385.0521 656.7064,-210 649.6508,-202.0281 641.2254,-195.7376 631.9761,-190.8085"/>
<polygon fill="none" stroke="#000000" points="633.4085,-187.6142 622.8736,-186.4894 630.4077,-193.9384 633.4085,-187.6142"/>
</g>
<!-- \\UnitConverter\\Unit\\Energy\\Joule -->
<g id="node6" class="node">
<title>\\UnitConverter\\Unit\\Energy\\Joule</title>
<polygon fill="none" stroke="#000000" points="866.023,-1251 812.023,-1251 812.023,-1215 866.023,-1215 866.023,-1251"/>
<text text-anchor="middle" x="839.023" y="-1229.7" font-family="Courier,monospace" font-size="11.00" fill="#000000">Joule</text>
</g>
<!-- \\UnitConverter\\Unit\\Energy\\Joule&#45;&gt;\\UnitConverter\\Unit\\Energy\\EnergyUnit -->
<g id="edge6" class="edge">
<title>\\UnitConverter\\Unit\\Energy\\Joule&#45;&gt;\\UnitConverter\\Unit\\Energy\\EnergyUnit</title>
<path fill="none" stroke="#000000" d="M811.831,-1235.2643C784.3357,-1235.8976 742.8329,-1231.9886 720.7064,-1206 576.9279,-1037.1259 803.9724,-375.8415 656.7064,-210 649.6376,-202.0397 641.203,-195.7575 631.9474,-190.834"/>
<polygon fill="none" stroke="#000000" points="633.3753,-187.6376 622.8396,-186.5195 630.3785,-193.9637 633.3753,-187.6376"/>
</g>
<!-- \\UnitConverter\\Unit\\Energy\\Kilojoule -->
<g id="node7" class="node">
<title>\\UnitConverter\\Unit\\Energy\\Kilojoule</title>
<polygon fill="none" stroke="#000000" points="876.9338,-1197 801.1122,-1197 801.1122,-1161 876.9338,-1161 876.9338,-1197"/>
<text text-anchor="middle" x="839.023" y="-1175.7" font-family="Courier,monospace" font-size="11.00" fill="#000000">Kilojoule</text>
</g>
<!-- \\UnitConverter\\Unit\\Energy\\Kilojoule&#45;&gt;\\UnitConverter\\Unit\\Energy\\EnergyUnit -->
<g id="edge7" class="edge">
<title>\\UnitConverter\\Unit\\Energy\\Kilojoule&#45;&gt;\\UnitConverter\\Unit\\Energy\\EnergyUnit</title>
<path fill="none" stroke="#000000" d="M801.0947,-1181.237C774.4206,-1180.5642 740.143,-1174.7446 720.7064,-1152 584.3974,-992.4927 796.3094,-366.6324 656.7064,-210 649.6231,-202.0526 641.178,-195.7796 631.9154,-190.8625"/>
<polygon fill="none" stroke="#000000" points="633.3383,-187.6638 622.8019,-186.5531 630.346,-193.992 633.3383,-187.6638"/>
</g>
<!-- \\UnitConverter\\Unit\\Energy\\KilowattHour -->
<g id="node8" class="node">
<title>\\UnitConverter\\Unit\\Energy\\KilowattHour</title>
<polygon fill="none" stroke="#000000" points="886.7361,-1143 791.3099,-1143 791.3099,-1107 886.7361,-1107 886.7361,-1143"/>
<text text-anchor="middle" x="839.023" y="-1121.7" font-family="Courier,monospace" font-size="11.00" fill="#000000">KilowattHour</text>
</g>
<!-- \\UnitConverter\\Unit\\Energy\\KilowattHour&#45;&gt;\\UnitConverter\\Unit\\Energy\\EnergyUnit -->
<g id="edge8" class="edge">
<title>\\UnitConverter\\Unit\\Energy\\KilowattHour&#45;&gt;\\UnitConverter\\Unit\\Energy\\EnergyUnit</title>
<path fill="none" stroke="#000000" d="M791.2584,-1126.7262C766.4681,-1124.8921 737.8572,-1117.9864 720.7064,-1098 591.8654,-947.8577 788.6479,-357.4251 656.7064,-210 649.6067,-202.0672 641.1501,-195.8046 631.8796,-190.8944"/>
<polygon fill="none" stroke="#000000" points="633.297,-187.6932 622.7596,-186.5908 630.3096,-194.0238 633.297,-187.6932"/>
</g>
<!-- \\UnitConverter\\Unit\\Energy\\Megaelectronvolt -->
<g id="node9" class="node">
<title>\\UnitConverter\\Unit\\Energy\\Megaelectronvolt</title>
<polygon fill="none" stroke="#000000" points="899.6408,-1089 778.4052,-1089 778.4052,-1053 899.6408,-1053 899.6408,-1089"/>
<text text-anchor="middle" x="839.023" y="-1067.7" font-family="Courier,monospace" font-size="11.00" fill="#000000">Megaelectronvolt</text>
</g>
<!-- \\UnitConverter\\Unit\\Energy\\Megaelectronvolt&#45;&gt;\\UnitConverter\\Unit\\Energy\\EnergyUnit -->
<g id="edge9" class="edge">
<title>\\UnitConverter\\Unit\\Energy\\Megaelectronvolt&#45;&gt;\\UnitConverter\\Unit\\Energy\\EnergyUnit</title>
<path fill="none" stroke="#000000" d="M778.2461,-1071.2538C757.0107,-1068.0903 734.9456,-1060.5157 720.7064,-1044 599.3315,-903.2205 780.9883,-348.2198 656.7064,-210 649.5883,-202.0837 641.1187,-195.8328 631.8393,-190.9306"/>
<polygon fill="none" stroke="#000000" points="633.2504,-187.7265 622.712,-186.6335 630.2686,-194.0597 633.2504,-187.7265"/>
</g>
<!-- \\UnitConverter\\Unit\\Energy\\Megajoule -->
<g id="node10" class="node">
<title>\\UnitConverter\\Unit\\Energy\\Megajoule</title>
<polygon fill="none" stroke="#000000" points="876.9338,-1035 801.1122,-1035 801.1122,-999 876.9338,-999 876.9338,-1035"/>
<text text-anchor="middle" x="839.023" y="-1013.7" font-family="Courier,monospace" font-size="11.00" fill="#000000">Megajoule</text>
</g>
<!-- \\UnitConverter\\Unit\\Energy\\Megajoule&#45;&gt;\\UnitConverter\\Unit\\Energy\\EnergyUnit -->
<g id="edge10" class="edge">
<title>\\UnitConverter\\Unit\\Energy\\Megajoule&#45;&gt;\\UnitConverter\\Unit\\Energy\\EnergyUnit</title>
<path fill="none" stroke="#000000" d="M801.1893,-1019.1555C774.5623,-1018.4422 740.3021,-1012.6076 720.7064,-990 606.7954,-858.5807 773.3309,-339.0171 656.7064,-210 649.5675,-202.1025 641.083,-195.8649 631.7935,-190.9719"/>
<polygon fill="none" stroke="#000000" points="633.1974,-187.7645 622.658,-186.6822 630.2222,-194.1007 633.1974,-187.7645"/>
</g>
<!-- \\UnitConverter\\Unit\\Energy\\MegawattHour -->
<g id="node11" class="node">
<title>\\UnitConverter\\Unit\\Energy\\MegawattHour</title>
<polygon fill="none" stroke="#000000" points="886.7361,-981 791.3099,-981 791.3099,-945 886.7361,-945 886.7361,-981"/>
<text text-anchor="middle" x="839.023" y="-959.7" font-family="Courier,monospace" font-size="11.00" fill="#000000">MegawattHour</text>
</g>
<!-- \\UnitConverter\\Unit\\Energy\\MegawattHour&#45;&gt;\\UnitConverter\\Unit\\Energy\\EnergyUnit -->
<g id="edge11" class="edge">
<title>\\UnitConverter\\Unit\\Energy\\MegawattHour&#45;&gt;\\UnitConverter\\Unit\\Energy\\EnergyUnit</title>
<path fill="none" stroke="#000000" d="M791.3834,-964.618C766.6309,-962.7512 738.0163,-955.8487 720.7064,-936 614.2566,-813.9378 765.6764,-329.8176 656.7064,-210 649.5436,-202.1242 641.0421,-195.902 631.7411,-191.0194"/>
<polygon fill="none" stroke="#000000" points="633.1369,-187.8083 622.5962,-186.7383 630.169,-194.148 633.1369,-187.8083"/>
</g>
<!-- \\UnitConverter\\Unit\\Energy\\NewtonMeter -->
<g id="node12" class="node">
<title>\\UnitConverter\\Unit\\Energy\\NewtonMeter</title>
<polygon fill="none" stroke="#000000" points="883.1357,-927 794.9103,-927 794.9103,-891 883.1357,-891 883.1357,-927"/>
<text text-anchor="middle" x="839.023" y="-905.7" font-family="Courier,monospace" font-size="11.00" fill="#000000">NewtonMeter</text>
</g>
<!-- \\UnitConverter\\Unit\\Energy\\NewtonMeter&#45;&gt;\\UnitConverter\\Unit\\Energy\\EnergyUnit -->
<g id="edge12" class="edge">
<title>\\UnitConverter\\Unit\\Energy\\NewtonMeter&#45;&gt;\\UnitConverter\\Unit\\Energy\\EnergyUnit</title>
<path fill="none" stroke="#000000" d="M794.6794,-910.79C769.2421,-909.2712 738.8506,-902.6585 720.7064,-882 621.7144,-769.291 758.0253,-320.6218 656.7064,-210 649.4426,-202.0693 640.8209,-195.8186 631.3952,-190.926"/>
<polygon fill="none" stroke="#000000" points="632.6753,-187.6619 622.1298,-186.6406 629.7368,-194.0152 632.6753,-187.6619"/>
</g>
<!-- \\UnitConverter\\Unit\\Energy\\WattHour -->
<g id="node13" class="node">
<title>\\UnitConverter\\Unit\\Energy\\WattHour</title>
<polygon fill="none" stroke="#000000" points="873.3319,-873 804.7141,-873 804.7141,-837 873.3319,-837 873.3319,-873"/>
<text text-anchor="middle" x="839.023" y="-851.7" font-family="Courier,monospace" font-size="11.00" fill="#000000">WattHour</text>
</g>
<!-- \\UnitConverter\\Unit\\Energy\\WattHour&#45;&gt;\\UnitConverter\\Unit\\Energy\\EnergyUnit -->
<g id="edge13" class="edge">
<title>\\UnitConverter\\Unit\\Energy\\WattHour&#45;&gt;\\UnitConverter\\Unit\\Energy\\EnergyUnit</title>
<path fill="none" stroke="#000000" d="M804.5716,-856.1526C777.562,-855.0417 741.2229,-848.7213 720.7064,-825 540.9348,-617.1482 843.2017,-411.8407 656.7064,-210 649.408,-202.1011 640.7618,-195.873 631.3196,-190.9955"/>
<polygon fill="none" stroke="#000000" points="632.5879,-187.7263 622.0407,-186.7226 629.6599,-194.0846 632.5879,-187.7263"/>
</g>
<!-- \\UnitConverter\\Unit\\Mass\\Stone -->
<g id="node14" class="node">
<title>\\UnitConverter\\Unit\\Mass\\Stone</title>
<polygon fill="none" stroke="#000000" points="866.023,-794 812.023,-794 812.023,-758 866.023,-758 866.023,-794"/>
<text text-anchor="middle" x="839.023" y="-772.7" font-family="Courier,monospace" font-size="11.00" fill="#000000">Stone</text>
</g>
<!-- \\UnitConverter\\Unit\\Mass\\MassUnit -->
<g id="node35" class="node">
<title>\\UnitConverter\\Unit\\Mass\\MassUnit</title>
<ellipse fill="none" stroke="#000000" cx="494.3175" cy="-126" rx="139.6107" ry="18"/>
<text text-anchor="middle" x="494.3175" y="-121.8" font-family="Times,serif" font-size="14.00" fill="#c0c0c0">\UnitConverter\Unit\Mass\MassUnit</text>
</g>
<!-- \\UnitConverter\\Unit\\Mass\\Stone&#45;&gt;\\UnitConverter\\Unit\\Mass\\MassUnit -->
<g id="edge14" class="edge">
<title>\\UnitConverter\\Unit\\Mass\\Stone&#45;&gt;\\UnitConverter\\Unit\\Mass\\MassUnit</title>
<path fill="none" stroke="#000000" d="M811.8006,-778.0746C784.4853,-778.5204 743.314,-774.4304 720.7064,-749 543.6996,-549.8925 839.567,-346.7452 656.7064,-153 650.4352,-146.3556 643.1979,-140.9495 635.3336,-136.5763"/>
<polygon fill="none" stroke="#000000" points="636.722,-133.3584 626.2062,-132.0666 633.6212,-139.6342 636.722,-133.3584"/>
</g>
<!-- \\UnitConverter\\Unit\\Mass\\UKLongTon -->
<g id="node15" class="node">
<title>\\UnitConverter\\Unit\\Mass\\UKLongTon</title>
<polygon fill="none" stroke="#000000" points="876.9338,-740 801.1122,-740 801.1122,-704 876.9338,-704 876.9338,-740"/>
<text text-anchor="middle" x="839.023" y="-718.7" font-family="Courier,monospace" font-size="11.00" fill="#000000">UKLongTon</text>
</g>
<!-- \\UnitConverter\\Unit\\Mass\\UKLongTon&#45;&gt;\\UnitConverter\\Unit\\Mass\\MassUnit -->
<g id="edge15" class="edge">
<title>\\UnitConverter\\Unit\\Mass\\UKLongTon&#45;&gt;\\UnitConverter\\Unit\\Mass\\MassUnit</title>
<path fill="none" stroke="#000000" d="M801.147,-723.9366C774.6778,-723.0862 740.6317,-717.1762 720.7064,-695 558.59,-514.5704 824.1267,-328.5192 656.7064,-153 650.4002,-146.3888 643.1366,-141.0077 635.2532,-136.6526"/>
<polygon fill="none" stroke="#000000" points="636.6259,-133.4275 626.1071,-132.1607 633.54,-139.7106 636.6259,-133.4275"/>
</g>
<!-- \\UnitConverter\\Unit\\Mass\\USShortTon -->
<g id="node16" class="node">
<title>\\UnitConverter\\Unit\\Mass\\USShortTon</title>
<polygon fill="none" stroke="#000000" points="880.0337,-686 798.0123,-686 798.0123,-650 880.0337,-650 880.0337,-686"/>
<text text-anchor="middle" x="839.023" y="-664.7" font-family="Courier,monospace" font-size="11.00" fill="#000000">USShortTon</text>
</g>
<!-- \\UnitConverter\\Unit\\Mass\\USShortTon&#45;&gt;\\UnitConverter\\Unit\\Mass\\MassUnit -->
<g id="edge16" class="edge">
<title>\\UnitConverter\\Unit\\Mass\\USShortTon&#45;&gt;\\UnitConverter\\Unit\\Mass\\MassUnit</title>
<path fill="none" stroke="#000000" d="M797.7408,-668.5792C771.816,-666.6047 739.787,-659.4574 720.7064,-638 576.226,-475.5232 807.8472,-309.3001 656.7064,-153 650.3552,-146.432 643.0579,-141.0834 635.1498,-136.7519"/>
<polygon fill="none" stroke="#000000" points="636.5023,-133.5176 625.9796,-132.2831 633.4357,-139.8102 636.5023,-133.5176"/>
</g>
<!-- \\UnitConverter\\Unit\\Pressure\\Millibar -->
<g id="node17" class="node">
<title>\\UnitConverter\\Unit\\Pressure\\Millibar</title>
<polygon fill="none" stroke="#000000" points="873.3319,-607 804.7141,-607 804.7141,-571 873.3319,-571 873.3319,-607"/>
<text text-anchor="middle" x="839.023" y="-585.7" font-family="Courier,monospace" font-size="11.00" fill="#000000">Millibar</text>
</g>
<!-- \\UnitConverter\\Unit\\Pressure\\PressureUnit -->
<g id="node36" class="node">
<title>\\UnitConverter\\Unit\\Pressure\\PressureUnit</title>
<ellipse fill="none" stroke="#000000" cx="494.3175" cy="-72" rx="162.2779" ry="18"/>
<text text-anchor="middle" x="494.3175" y="-67.8" font-family="Times,serif" font-size="14.00" fill="#c0c0c0">\UnitConverter\Unit\Pressure\PressureUnit</text>
</g>
<!-- \\UnitConverter\\Unit\\Pressure\\Millibar&#45;&gt;\\UnitConverter\\Unit\\Pressure\\PressureUnit -->
<g id="edge17" class="edge">
<title>\\UnitConverter\\Unit\\Pressure\\Millibar&#45;&gt;\\UnitConverter\\Unit\\Pressure\\PressureUnit</title>
<path fill="none" stroke="#000000" d="M804.4649,-592.5223C777.7637,-593.1855 741.897,-589.2315 720.7064,-567 575.8593,-415.0381 802.9967,-249.573 656.7064,-99 652.1321,-94.2918 647.0714,-90.2111 641.6484,-86.6833"/>
<polygon fill="none" stroke="#000000" points="643.2536,-83.5683 632.8462,-81.5837 639.7445,-89.6252 643.2536,-83.5683"/>
</g>
<!-- \\UnitConverter\\Unit\\Time\\Day -->
<g id="node18" class="node">
<title>\\UnitConverter\\Unit\\Time\\Day</title>
<polygon fill="none" stroke="#000000" points="866.023,-1924 812.023,-1924 812.023,-1888 866.023,-1888 866.023,-1924"/>
<text text-anchor="middle" x="839.023" y="-1902.7" font-family="Courier,monospace" font-size="11.00" fill="#000000">Day</text>
</g>
<!-- \\UnitConverter\\Unit\\Time\\TimeUnit -->
<g id="node26" class="node">
<title>\\UnitConverter\\Unit\\Time\\TimeUnit</title>
<polygon fill="none" stroke="#000000" points="535.3282,-1681 453.3067,-1681 453.3067,-1645 535.3282,-1645 535.3282,-1681"/>
<text text-anchor="start" x="461.3121" y="-1665.2" font-family="Courier,monospace" font-size="11.00" fill="#000000">«abstract»</text>
<text text-anchor="start" x="467.9132" y="-1654.2" font-family="Courier,monospace" font-size="11.00" fill="#000000">TimeUnit</text>
</g>
<!-- \\UnitConverter\\Unit\\Time\\Day&#45;&gt;\\UnitConverter\\Unit\\Time\\TimeUnit -->
<g id="edge18" class="edge">
<title>\\UnitConverter\\Unit\\Time\\Day&#45;&gt;\\UnitConverter\\Unit\\Time\\TimeUnit</title>
<path fill="none" stroke="#000000" d="M811.7379,-1903.9273C786.7786,-1901.0967 749.4725,-1894.4597 720.7064,-1879 629.9366,-1830.2179 549.3834,-1735.1317 513.7445,-1689.1477"/>
<polygon fill="none" stroke="#000000" points="516.4808,-1686.964 507.6203,-1681.1551 510.9243,-1691.2216 516.4808,-1686.964"/>
</g>
<!-- \\UnitConverter\\Unit\\Time\\Hour -->
<g id="node19" class="node">
<title>\\UnitConverter\\Unit\\Time\\Hour</title>
<polygon fill="none" stroke="#000000" points="866.023,-1870 812.023,-1870 812.023,-1834 866.023,-1834 866.023,-1870"/>
<text text-anchor="middle" x="839.023" y="-1848.7" font-family="Courier,monospace" font-size="11.00" fill="#000000">Hour</text>
</g>
<!-- \\UnitConverter\\Unit\\Time\\Hour&#45;&gt;\\UnitConverter\\Unit\\Time\\TimeUnit -->
<g id="edge19" class="edge">
<title>\\UnitConverter\\Unit\\Time\\Hour&#45;&gt;\\UnitConverter\\Unit\\Time\\TimeUnit</title>
<path fill="none" stroke="#000000" d="M811.7342,-1848.8963C787.1022,-1845.3782 750.2966,-1838.3113 720.7064,-1825 641.3703,-1789.3103 561.6774,-1723.7189 521.3519,-1687.9195"/>
<polygon fill="none" stroke="#000000" points="523.6071,-1685.2407 513.8235,-1681.1746 518.936,-1690.4543 523.6071,-1685.2407"/>
</g>
<!-- \\UnitConverter\\Unit\\Time\\Microsecond -->
<g id="node20" class="node">
<title>\\UnitConverter\\Unit\\Time\\Microsecond</title>
<polygon fill="none" stroke="#000000" points="883.1357,-1816 794.9103,-1816 794.9103,-1780 883.1357,-1780 883.1357,-1816"/>
<text text-anchor="middle" x="839.023" y="-1794.7" font-family="Courier,monospace" font-size="11.00" fill="#000000">Microsecond</text>
</g>
<!-- \\UnitConverter\\Unit\\Time\\Microsecond&#45;&gt;\\UnitConverter\\Unit\\Time\\TimeUnit -->
<g id="edge20" class="edge">
<title>\\UnitConverter\\Unit\\Time\\Microsecond&#45;&gt;\\UnitConverter\\Unit\\Time\\TimeUnit</title>
<path fill="none" stroke="#000000" d="M794.8248,-1790.3249C772.3049,-1785.8116 744.6855,-1779.3407 720.7064,-1771 653.5088,-1747.6266 579.8743,-1710.0988 535.3885,-1686.0032"/>
<polygon fill="none" stroke="#000000" points="536.8061,-1682.7897 526.3509,-1681.0752 533.455,-1688.9354 536.8061,-1682.7897"/>
</g>
<!-- \\UnitConverter\\Unit\\Time\\Millisecond -->
<g id="node21" class="node">
<title>\\UnitConverter\\Unit\\Time\\Millisecond</title>
<polygon fill="none" stroke="#000000" points="883.1357,-1762 794.9103,-1762 794.9103,-1726 883.1357,-1726 883.1357,-1762"/>
<text text-anchor="middle" x="839.023" y="-1740.7" font-family="Courier,monospace" font-size="11.00" fill="#000000">Millisecond</text>
</g>
<!-- \\UnitConverter\\Unit\\Time\\Millisecond&#45;&gt;\\UnitConverter\\Unit\\Time\\TimeUnit -->
<g id="edge21" class="edge">
<title>\\UnitConverter\\Unit\\Time\\Millisecond&#45;&gt;\\UnitConverter\\Unit\\Time\\TimeUnit</title>
<path fill="none" stroke="#000000" d="M794.8932,-1734.0374C772.6346,-1728.9849 745.2252,-1722.7217 720.7064,-1717 660.5284,-1702.957 591.4564,-1686.4208 545.5933,-1675.382"/>
<polygon fill="none" stroke="#000000" points="546.1411,-1671.9139 535.5995,-1672.9751 544.5021,-1678.7193 546.1411,-1671.9139"/>
</g>
<!-- \\UnitConverter\\Unit\\Time\\Minute -->
<g id="node22" class="node">
<title>\\UnitConverter\\Unit\\Time\\Minute</title>
<polygon fill="none" stroke="#000000" points="866.6308,-1708 811.4152,-1708 811.4152,-1672 866.6308,-1672 866.6308,-1708"/>
<text text-anchor="middle" x="839.023" y="-1686.7" font-family="Courier,monospace" font-size="11.00" fill="#000000">Minute</text>
</g>
<!-- \\UnitConverter\\Unit\\Time\\Minute&#45;&gt;\\UnitConverter\\Unit\\Time\\TimeUnit -->
<g id="edge22" class="edge">
<title>\\UnitConverter\\Unit\\Time\\Minute&#45;&gt;\\UnitConverter\\Unit\\Time\\TimeUnit</title>
<path fill="none" stroke="#000000" d="M811.397,-1687.8361C753.6441,-1683.3125 619.3782,-1672.7957 545.4332,-1667.0038"/>
<polygon fill="none" stroke="#000000" points="545.6566,-1663.5107 535.4138,-1666.219 545.11,-1670.4893 545.6566,-1663.5107"/>
</g>
<!-- \\UnitConverter\\Unit\\Time\\Month -->
<g id="node23" class="node">
<title>\\UnitConverter\\Unit\\Time\\Month</title>
<polygon fill="none" stroke="#000000" points="866.023,-1654 812.023,-1654 812.023,-1618 866.023,-1618 866.023,-1654"/>
<text text-anchor="middle" x="839.023" y="-1632.7" font-family="Courier,monospace" font-size="11.00" fill="#000000">Month</text>
</g>
<!-- \\UnitConverter\\Unit\\Time\\Month&#45;&gt;\\UnitConverter\\Unit\\Time\\TimeUnit -->
<g id="edge23" class="edge">
<title>\\UnitConverter\\Unit\\Time\\Month&#45;&gt;\\UnitConverter\\Unit\\Time\\TimeUnit</title>
<path fill="none" stroke="#000000" d="M811.9745,-1638.1186C754.6002,-1642.6126 619.8904,-1653.1642 545.6517,-1658.9791"/>
<polygon fill="none" stroke="#000000" points="545.2881,-1655.4968 535.592,-1659.7671 545.8348,-1662.4754 545.2881,-1655.4968"/>
</g>
<!-- \\UnitConverter\\Unit\\Time\\Nanosecond -->
<g id="node24" class="node">
<title>\\UnitConverter\\Unit\\Time\\Nanosecond</title>
<polygon fill="none" stroke="#000000" points="880.0337,-1600 798.0123,-1600 798.0123,-1564 880.0337,-1564 880.0337,-1600"/>
<text text-anchor="middle" x="839.023" y="-1578.7" font-family="Courier,monospace" font-size="11.00" fill="#000000">Nanosecond</text>
</g>
<!-- \\UnitConverter\\Unit\\Time\\Nanosecond&#45;&gt;\\UnitConverter\\Unit\\Time\\TimeUnit -->
<g id="edge24" class="edge">
<title>\\UnitConverter\\Unit\\Time\\Nanosecond&#45;&gt;\\UnitConverter\\Unit\\Time\\TimeUnit</title>
<path fill="none" stroke="#000000" d="M797.8124,-1588.89C774.7507,-1593.3661 745.6981,-1600.0468 720.7064,-1609 690.7677,-1619.7255 687.0958,-1631.6277 656.7064,-1641 620.5223,-1652.1595 578.0689,-1657.6618 545.6456,-1660.373"/>
<polygon fill="none" stroke="#000000" points="545.1918,-1656.8975 535.4917,-1661.1588 545.732,-1663.8767 545.1918,-1656.8975"/>
</g>
<!-- \\UnitConverter\\Unit\\Time\\Second -->
<g id="node25" class="node">
<title>\\UnitConverter\\Unit\\Time\\Second</title>
<polygon fill="none" stroke="#000000" points="866.6308,-1546 811.4152,-1546 811.4152,-1510 866.6308,-1510 866.6308,-1546"/>
<text text-anchor="middle" x="839.023" y="-1524.7" font-family="Courier,monospace" font-size="11.00" fill="#000000">Second</text>
</g>
<!-- \\UnitConverter\\Unit\\Time\\Second&#45;&gt;\\UnitConverter\\Unit\\Time\\TimeUnit -->
<g id="edge25" class="edge">
<title>\\UnitConverter\\Unit\\Time\\Second&#45;&gt;\\UnitConverter\\Unit\\Time\\TimeUnit</title>
<path fill="none" stroke="#000000" d="M811.0802,-1528.9641C785.6673,-1531.03 748.0641,-1537.1662 720.7064,-1555 680.7931,-1581.0185 697.746,-1616.7972 656.7064,-1641 623.2825,-1660.7114 579.3794,-1665.664 545.6506,-1665.9889"/>
<polygon fill="none" stroke="#000000" points="545.5451,-1662.4886 535.5325,-1665.9524 545.5198,-1669.4886 545.5451,-1662.4886"/>
</g>
<!-- \\UnitConverter\\Unit\\AbstractUnit -->
<g id="node37" class="node">
<title>\\UnitConverter\\Unit\\AbstractUnit</title>
<ellipse fill="none" stroke="#000000" cx="129.9643" cy="-1663" rx="129.9286" ry="18"/>
<text text-anchor="middle" x="129.9643" y="-1658.8" font-family="Times,serif" font-size="14.00" fill="#c0c0c0">\UnitConverter\Unit\AbstractUnit</text>
</g>
<!-- \\UnitConverter\\Unit\\Time\\TimeUnit&#45;&gt;\\UnitConverter\\Unit\\AbstractUnit -->
<g id="edge26" class="edge">
<title>\\UnitConverter\\Unit\\Time\\TimeUnit&#45;&gt;\\UnitConverter\\Unit\\AbstractUnit</title>
<path fill="none" stroke="#000000" d="M453.2298,-1663C408.8859,-1663 335.8057,-1663 270.3385,-1663"/>
<polygon fill="none" stroke="#000000" points="270.3214,-1659.5001 260.3214,-1663 270.3214,-1666.5001 270.3214,-1659.5001"/>
</g>
<!-- \\UnitConverter\\Unit\\Time\\Week -->
<g id="node27" class="node">
<title>\\UnitConverter\\Unit\\Time\\Week</title>
<polygon fill="none" stroke="#000000" points="866.023,-1492 812.023,-1492 812.023,-1456 866.023,-1456 866.023,-1492"/>
<text text-anchor="middle" x="839.023" y="-1470.7" font-family="Courier,monospace" font-size="11.00" fill="#000000">Week</text>
</g>
<!-- \\UnitConverter\\Unit\\Time\\Week&#45;&gt;\\UnitConverter\\Unit\\Time\\TimeUnit -->
<g id="edge27" class="edge">
<title>\\UnitConverter\\Unit\\Time\\Week&#45;&gt;\\UnitConverter\\Unit\\Time\\TimeUnit</title>
<path fill="none" stroke="#000000" d="M811.6322,-1473.6021C785.5424,-1474.6259 746.5243,-1479.9855 720.7064,-1501 667.6457,-1544.1887 711.65,-1600.2338 656.7064,-1641 625.1299,-1664.4286 580.3195,-1668.9728 545.7669,-1668.1943"/>
<polygon fill="none" stroke="#000000" points="545.5258,-1664.6825 535.399,-1667.7967 545.2575,-1671.6774 545.5258,-1664.6825"/>
</g>
<!-- \\UnitConverter\\Unit\\Time\\Year -->
<g id="node28" class="node">
<title>\\UnitConverter\\Unit\\Time\\Year</title>
<polygon fill="none" stroke="#000000" points="866.023,-1438 812.023,-1438 812.023,-1402 866.023,-1402 866.023,-1438"/>
<text text-anchor="middle" x="839.023" y="-1416.7" font-family="Courier,monospace" font-size="11.00" fill="#000000">Year</text>
</g>
<!-- \\UnitConverter\\Unit\\Time\\Year&#45;&gt;\\UnitConverter\\Unit\\Time\\TimeUnit -->
<g id="edge28" class="edge">
<title>\\UnitConverter\\Unit\\Time\\Year&#45;&gt;\\UnitConverter\\Unit\\Time\\TimeUnit</title>
<path fill="none" stroke="#000000" d="M811.8572,-1418.9764C785.3745,-1419.4685 745.5624,-1424.3838 720.7064,-1447 653.5516,-1508.1032 726.5332,-1582.9692 656.7064,-1641 626.1376,-1666.4047 580.5696,-1670.633 545.478,-1669.2322"/>
<polygon fill="none" stroke="#000000" points="545.5972,-1665.7335 535.4168,-1668.6678 545.205,-1672.7225 545.5972,-1665.7335"/>
</g>
<!-- \\UnitConverter\\Unit\\UnitInterface -->
<g id="node29" class="node">
<title>\\UnitConverter\\Unit\\UnitInterface</title>
<polygon fill="none" stroke="#000000" points="889.8371,-553 788.2089,-553 788.2089,-517 889.8371,-517 889.8371,-553"/>
<text text-anchor="middle" x="839.023" y="-531.7" font-family="Courier,monospace" font-size="11.00" fill="#000000">UnitInterface</text>
</g>
<!-- \\UnitConverter\\Measure -->
<g id="node30" class="node">
<title>\\UnitConverter\\Measure</title>
<polygon fill="none" stroke="#000000" points="870.2309,-312 807.8151,-312 807.8151,-276 870.2309,-276 870.2309,-312"/>
<text text-anchor="middle" x="839.023" y="-290.7" font-family="Courier,monospace" font-size="11.00" fill="#000000">Measure</text>
</g>
<!-- \\UnitConverter\\UnitConverter -->
<g id="node31" class="node">
<title>\\UnitConverter\\UnitConverter</title>
<polygon fill="none" stroke="#000000" points="889.8371,-258 788.2089,-258 788.2089,-222 889.8371,-222 889.8371,-258"/>
<text text-anchor="middle" x="839.023" y="-236.7" font-family="Courier,monospace" font-size="11.00" fill="#000000">UnitConverter</text>
</g>
<!-- \\UnitConverter\\UnitConverterInterface -->
<g id="node32" class="node">
<title>\\UnitConverter\\UnitConverterInterface</title>
<polygon fill="none" stroke="#000000" points="575.0413,-258 413.5937,-258 413.5937,-222 575.0413,-222 575.0413,-258"/>
<text text-anchor="middle" x="494.3175" y="-236.7" font-family="Courier,monospace" font-size="11.00" fill="#000000">UnitConverterInterface</text>
</g>
<!-- \\UnitConverter\\UnitConverter&#45;&gt;\\UnitConverter\\UnitConverterInterface -->
<g id="edge29" class="edge">
<title>\\UnitConverter\\UnitConverter&#45;&gt;\\UnitConverter\\UnitConverterInterface</title>
<path fill="none" stroke="#000000" stroke-dasharray="1,5" d="M788.1605,-240C734.9195,-240 650.2087,-240 585.3905,-240"/>
<polygon fill="none" stroke="#000000" points="585.1662,-236.5001 575.1662,-240 585.1662,-243.5001 585.1662,-236.5001"/>
</g>
</g>
</svg>
